<svg width="9686" height="12956" viewBox="0 0 9686 12956" fill="none" xmlns="http://www.w3.org/2000/svg">
<rect width="9686" height="12956" fill="#1425A1"/>
<path fill-rule="evenodd" clip-rule="evenodd" d="M4608.12 6725.53C4609.75 6736.77 4625.92 6737.04 4656.64 6726.35L4659.9 6724.71C4661.8 6723.61 4664.11 6722.38 4666.83 6721.01C4669.55 6719.64 4672.68 6718.13 4676.21 6716.49C4679.74 6714.84 4683.14 6713.2 4686.4 6711.55C4689.67 6709.91 4692.66 6708.27 4695.37 6706.62L4701.9 6703.33L4704.35 6702.1C4708.15 6701.55 4710.87 6701.41 4712.5 6701.69C4714.4 6701.96 4717.39 6702.65 4721.47 6703.74C4725.55 6705.11 4728.4 6705.94 4730.03 6706.21C4744.71 6709.22 4758.85 6711.55 4772.44 6713.2C4786.3 6714.84 4798.53 6716.21 4809.14 6717.31C4818.23 6718.25 4827.83 6718.38 4837.93 6717.71C4848.08 6718.38 4857.73 6718.25 4866.87 6717.31C4877.52 6716.21 4889.81 6714.84 4903.74 6713.2C4917.4 6711.55 4931.6 6709.22 4946.35 6706.21C4947.99 6705.94 4950.85 6705.11 4954.95 6703.74C4959.05 6702.65 4962.05 6701.96 4963.96 6701.69C4965.6 6701.41 4968.33 6701.55 4972.16 6702.1L4974.62 6703.33L4981.17 6706.62C4983.9 6708.27 4986.91 6709.91 4990.18 6711.55C4993.46 6713.2 4996.88 6714.84 5000.43 6716.49C5003.98 6718.13 5007.12 6719.64 5009.85 6721.01C5012.58 6722.38 5014.9 6723.61 5016.81 6724.71L5020.09 6726.35C5050.95 6737.04 5067.21 6736.77 5068.84 6725.53C5068.84 6715.12 5062.02 6706.9 5048.36 6700.87C5034.43 6694.84 5016.68 6691.82 4995.1 6691.82C4993.46 6691.55 4991.82 6690.86 4990.18 6689.77C4988.27 6688.4 4986.09 6686.34 4983.63 6683.6C4982.54 6682.38 4981.55 6681.3 4980.67 6680.35L4981.61 6679.9C4992.76 6674.42 4998.87 6671.41 4999.96 6670.86C5027.15 6657.98 5053.11 6637.56 5077.84 6609.61C5102.85 6581.38 5122.69 6552.74 5137.37 6523.69C5152.32 6494.37 5162.65 6467.1 5168.36 6441.89C5171.34 6428.49 5173.78 6415.64 5175.67 6403.33C5178.14 6396.02 5180.22 6388.46 5181.92 6380.64C5186.29 6358.99 5186.15 6333.92 5181.51 6305.42C5176.59 6276.91 5166.49 6248 5151.19 6218.68C5140.04 6197.63 5126.86 6178.02 5111.65 6159.86C5103.23 6148.55 5093.87 6136.78 5083.55 6124.54C5091.71 6115.77 5104.07 6105.09 5120.66 6092.48C5137.24 6079.6 5150.42 6071.52 5160.21 6068.23C5162.65 6067.41 5165.92 6066.58 5169.99 6065.76C5174.07 6064.66 5177.06 6063.71 5178.96 6062.88C5180.87 6061.79 5181.82 6060.42 5181.82 6058.77C5181.27 6053.02 5169.86 6053.02 5147.57 6058.77C5138.87 6061.51 5127.59 6066.99 5113.72 6075.22C5099.86 6083.44 5087.9 6090.97 5077.84 6097.82C5068.06 6104.4 5062.89 6107.69 5062.35 6107.69L5052.56 6098.65C5030.81 6083.03 5008.93 6070.42 4986.91 6060.83C4965.17 6050.96 4943.15 6044.25 4920.86 6040.69C4918.63 6040.3 4916.47 6039.92 4914.36 6039.57C4890.94 6034.1 4868.28 6031.6 4846.38 6032.05C4843.46 6032.1 4840.65 6032.14 4837.93 6032.2C4835.24 6032.14 4832.43 6032.1 4829.52 6032.05C4808.33 6031.61 4786.42 6033.96 4763.79 6039.12C4760.85 6039.61 4757.8 6040.13 4754.61 6040.69C4732.22 6044.25 4710.1 6050.96 4688.25 6060.83C4666.12 6070.42 4644.14 6083.03 4622.29 6098.65L4612.45 6107.69C4611.91 6107.69 4606.72 6104.4 4596.89 6097.82C4586.78 6090.97 4574.76 6083.44 4560.83 6075.22C4546.9 6066.99 4535.57 6061.51 4526.83 6058.77C4504.43 6053.02 4492.96 6053.02 4492.42 6058.77C4492.42 6060.42 4493.37 6061.79 4495.28 6062.88C4497.2 6063.71 4500.2 6064.66 4504.3 6065.76C4508.39 6066.58 4511.67 6067.41 4514.13 6068.23C4523.96 6071.52 4537.21 6079.6 4553.87 6092.48C4570.53 6105.09 4582.96 6115.77 4591.15 6124.54C4567.93 6151.95 4549.5 6177.02 4535.84 6199.77C4521.91 6222.24 4511.26 6246.08 4503.89 6271.3C4502.29 6276.75 4500.88 6282.25 4499.66 6287.8C4498.22 6293.69 4496.99 6299.56 4495.99 6305.42C4491.37 6333.92 4491.23 6358.99 4495.58 6380.64C4495.61 6380.8 4495.65 6380.95 4495.68 6381.1C4497.67 6399.94 4501.09 6420.2 4505.94 6441.89C4511.67 6467.1 4522.05 6494.37 4537.07 6523.69C4551.82 6552.74 4571.76 6581.38 4596.89 6609.61C4621.74 6637.56 4647.82 6657.98 4675.14 6670.86C4676.23 6671.41 4682.37 6674.42 4693.57 6679.9L4694.45 6680.32C4694.79 6680.48 4695.13 6680.64 4695.46 6680.8C4694.69 6681.64 4693.85 6682.57 4692.93 6683.6C4690.48 6686.34 4688.31 6688.4 4686.4 6689.77C4684.77 6690.86 4683.14 6691.55 4681.51 6691.82C4660.04 6691.82 4642.37 6694.84 4628.5 6700.87C4614.91 6706.9 4608.12 6715.12 4608.12 6725.53ZM4706.38 6667.64C4700.41 6664.44 4694.23 6661 4687.84 6657.29C4664.35 6643.86 4642.91 6626.6 4623.52 6605.5C4603.85 6584.4 4588.28 6563.16 4576.81 6541.78C4565.07 6520.13 4555.92 6501.09 4549.36 6484.64C4547.84 6480.82 4546.42 6477.11 4545.12 6473.52C4547.96 6476.17 4550.88 6478.64 4553.89 6480.94C4567.48 6491.36 4581.34 6498.35 4595.48 6501.91C4620.49 6507.94 4644 6509.03 4666.02 6505.2C4688.31 6501.36 4708.69 6494.23 4727.18 6483.82C4745.94 6473.41 4762.38 6460.94 4776.52 6446.41C4782.4 6440.26 4787.83 6434 4792.82 6427.65C4794 6429.91 4795.2 6432.19 4796.4 6434.49C4807.38 6455.61 4816.19 6472.54 4822.83 6485.28C4820.65 6489.44 4818.4 6493.75 4816.07 6498.21C4779.37 6567.54 4744.03 6622.35 4710.05 6662.64C4709.82 6663.11 4708.6 6664.77 4706.38 6667.64ZM4715.86 6690C4715.12 6690.35 4714.54 6690.41 4714.13 6690.18C4720.93 6695.39 4728.54 6698.54 4736.97 6699.63C4737.8 6699.74 4738.63 6699.86 4739.46 6699.96C4737.32 6699.13 4735 6698.2 4732.49 6697.17C4724.66 6693.74 4719.12 6691.35 4715.86 6690ZM4837.93 6705.49C4821.82 6704.79 4806.75 6702.98 4792.72 6700.04C4773.05 6695.66 4755.57 6690.32 4740.28 6684.01C4736.21 6682.29 4732.01 6680.42 4727.68 6678.38C4737.18 6667.01 4751.42 6647.51 4770.4 6619.89C4801.44 6574.71 4823.95 6539.41 4837.93 6514C4851.98 6539.41 4874.6 6574.71 4905.79 6619.89C4924.66 6647.22 4938.87 6666.6 4948.41 6678.02C4943.84 6680.2 4939.41 6682.19 4935.13 6684.01C4919.91 6690.32 4902.51 6695.66 4882.94 6700.04C4868.97 6702.98 4853.97 6704.79 4837.93 6705.49ZM4935.48 6700.15C4936.77 6699.98 4938.07 6699.81 4939.38 6699.63C4947.85 6698.54 4955.5 6695.39 4962.33 6690.18C4961.83 6690.46 4961.08 6690.32 4960.07 6689.73C4956.95 6691.03 4951.22 6693.5 4942.88 6697.17C4940.2 6698.27 4937.74 6699.27 4935.48 6700.15ZM4969.74 6667.17C4975.42 6664.1 4981.28 6660.81 4987.32 6657.29C5010.7 6643.86 5032.04 6626.6 5051.34 6605.5C5070.91 6584.4 5086.4 6563.16 5097.82 6541.78C5109.51 6520.13 5118.62 6501.09 5125.14 6484.64C5126.15 6482.1 5127.11 6479.61 5128.02 6477.17C5126.48 6478.48 5124.92 6479.73 5123.33 6480.94C5109.68 6491.36 5095.75 6498.35 5081.54 6501.91C5056.42 6507.94 5032.79 6509.03 5010.67 6505.2C4988.27 6501.36 4967.79 6494.23 4949.22 6483.82C4930.37 6473.41 4913.85 6460.94 4899.64 6446.41C4893.63 6440.15 4888.09 6433.79 4883 6427.33C4881.77 6429.69 4880.53 6432.08 4879.27 6434.49C4868.38 6455.53 4859.64 6472.42 4853.04 6485.14C4855.25 6489.35 4857.54 6493.7 4859.9 6498.21C4896.78 6567.54 4932.28 6622.35 4966.42 6662.64C4966.64 6663.08 4967.75 6664.59 4969.74 6667.17ZM4837.93 6456.41C4851.77 6429.99 4860.93 6412.54 4865.41 6404.07C4865.65 6403.6 4865.89 6403.12 4866.13 6402.65C4865.69 6401.89 4865.25 6401.13 4864.82 6400.37C4855.81 6384.48 4849.93 6369.13 4847.2 6354.33C4841.47 6335.7 4841.19 6322.82 4846.38 6315.69C4850.48 6309.94 4856.08 6308.57 4863.18 6311.58C4870.01 6314.32 4873.42 6319.39 4873.42 6326.79C4873.42 6329.53 4872.74 6333.64 4871.38 6339.12C4869.74 6344.33 4868.92 6349.13 4868.92 6353.51C4868.64 6357.62 4869.87 6365.71 4872.6 6377.76C4873.32 6380.29 4874.12 6382.82 4875 6385.33C4901.32 6334.42 4926.12 6290.38 4949.4 6253.21C4975.77 6211.28 5006.21 6172.09 5040.74 6135.64C5043.8 6132.46 5046.47 6129.62 5048.74 6127.1C5029.16 6109.09 5009.23 6094.4 4988.96 6083.03C4963.28 6068.78 4938.02 6058.22 4913.16 6051.37C4890.92 6045.31 4869.22 6041.93 4848.05 6041.23C4844.7 6041.16 4841.33 6041.11 4837.93 6041.1C4834.62 6041.11 4831.34 6041.15 4828.08 6041.23C4806.94 6041.91 4785.27 6045.29 4763.06 6051.37C4738.32 6058.22 4713.18 6068.78 4687.63 6083.03C4667.07 6094.61 4646.88 6109.64 4627.05 6128.11C4629.12 6130.37 4631.49 6132.88 4634.17 6135.64C4668.85 6172.09 4699.44 6211.28 4725.94 6253.21C4749.39 6290.48 4774.38 6334.65 4800.9 6385.73C4801.83 6383.09 4802.67 6380.43 4803.43 6377.76C4806.15 6365.71 4807.37 6357.62 4807.1 6353.51C4807.1 6349.13 4806.28 6344.33 4804.65 6339.12C4803.29 6333.64 4802.61 6329.53 4802.61 6326.79C4802.61 6319.39 4806.01 6314.32 4812.81 6311.58C4819.87 6308.57 4825.45 6309.94 4829.52 6315.69C4834.69 6322.82 4834.42 6335.7 4828.71 6354.33C4825.99 6369.13 4820.15 6384.48 4811.18 6400.37C4810.7 6401.21 4810.22 6402.05 4809.73 6402.89C4809.93 6403.29 4810.13 6403.68 4810.33 6404.07C4814.83 6412.54 4824.03 6429.99 4837.93 6456.41ZM4786.46 6415.54C4770.86 6385.91 4757.51 6360.99 4746.42 6340.77C4733.04 6316.38 4719.11 6292.54 4704.63 6269.24C4689.06 6244.3 4669.13 6214.84 4644.82 6180.86C4631.74 6162.43 4621.43 6149.12 4613.89 6140.92L4613.68 6141.13L4613.42 6141.4C4589.22 6166.06 4567.75 6194.7 4548.99 6227.31C4540.09 6242.81 4532.83 6258.34 4527.21 6273.91C4518.43 6320.04 4521.25 6375.77 4535.66 6441.08C4540.54 6449.22 4546.07 6456.75 4552.26 6463.68C4567.21 6479.85 4584.2 6490.26 4603.22 6494.92C4627.69 6500.4 4650.93 6500.81 4672.95 6496.15C4694.97 6491.22 4714.81 6482.72 4732.48 6470.67C4750.42 6458.61 4765.51 6444.49 4777.74 6428.33C4780.89 6424.09 4783.8 6419.83 4786.46 6415.54ZM5061.95 6139.81C5054.36 6147.89 5043.75 6161.58 5030.14 6180.86C5005.94 6214.84 4986.1 6244.3 4970.6 6269.24C4956.2 6292.54 4942.33 6316.38 4929.01 6340.77C4918.03 6360.89 4904.82 6385.67 4889.39 6415.12C4892.14 6419.55 4895.15 6423.95 4898.41 6428.33C4910.7 6444.49 4925.86 6458.61 4943.89 6470.67C4961.64 6482.72 4981.58 6491.22 5003.7 6496.15C5025.83 6500.81 5049.18 6500.4 5073.76 6494.92C5092.88 6490.26 5109.95 6479.85 5124.97 6463.68C5129.39 6458.75 5133.48 6453.52 5137.23 6447.98C5137.74 6445.89 5138.2 6443.86 5138.6 6441.89C5153.55 6374.2 5156.13 6316.79 5146.34 6269.65C5145.52 6265.59 5144.6 6261.53 5143.56 6257.49C5139.15 6247.41 5134.04 6237.36 5128.25 6227.31C5109.4 6194.7 5087.83 6166.06 5063.52 6141.4C5062.99 6140.87 5062.47 6140.34 5061.95 6139.81ZM4640.33 6721.83C4628.37 6727.31 4621.84 6728.27 4620.76 6724.71C4619.94 6723.34 4620.62 6720.46 4622.8 6716.08C4625.24 6711.69 4627.01 6709.22 4628.1 6708.68C4628.91 6708.13 4630.14 6707.58 4631.77 6707.03C4644.54 6702.1 4657.18 6699.36 4669.69 6698.81C4675.94 6698.54 4677.16 6699.91 4673.36 6702.92C4663.57 6710.05 4652.56 6716.35 4640.33 6721.83ZM5036.48 6721.83C5048.5 6727.31 5055.05 6728.27 5056.14 6724.71C5056.96 6723.34 5056.28 6720.46 5054.1 6716.08C5051.64 6711.69 5049.86 6709.22 5048.77 6708.68C5047.95 6708.13 5046.72 6707.58 5045.08 6707.03C5032.25 6702.1 5019.54 6699.36 5006.98 6698.81C5000.7 6698.54 4999.47 6699.91 5003.29 6702.92C5013.13 6710.05 5024.19 6716.35 5036.48 6721.83ZM4723.32 6912.87C4717.41 6915.04 4714.29 6914.98 4713.97 6912.7C4713.97 6910.59 4715.28 6908.93 4717.9 6907.7C4720.57 6906.48 4723.98 6905.87 4728.12 6905.87C4728.43 6905.81 4728.75 6905.68 4729.06 6905.45C4729.43 6905.18 4729.85 6904.76 4730.32 6904.2C4730.79 6903.65 4731.16 6903.23 4731.42 6902.95C4731.68 6902.62 4732.1 6902.06 4732.67 6901.29C4733.25 6900.51 4733.56 6900.06 4733.62 6899.95C4740.16 6891.79 4746.97 6880.68 4754.05 6866.62C4759.13 6856.4 4762.3 6850.04 4763.55 6847.54C4769.31 6835.6 4774.71 6825.41 4779.74 6816.96C4784.82 6808.46 4790.69 6800.52 4797.34 6793.13C4799.07 6791.24 4800.14 6789.94 4800.56 6789.21L4798.12 6786.63C4792.2 6782.08 4786.02 6778.83 4779.58 6776.88C4773.14 6774.94 4765.91 6773.97 4757.9 6773.97C4753.34 6773.97 4748.65 6774.66 4743.83 6776.05C4739.06 6777.44 4734.22 6779.58 4729.3 6782.47C4724.42 6785.35 4719.66 6789.3 4715 6794.3C4710.33 6799.3 4706.2 6805.1 4702.58 6811.71C4699.12 6818.05 4696.95 6824.41 4696.06 6830.79C4695.22 6837.18 4695.48 6842.76 4696.85 6847.54C4698.26 6852.26 4700.38 6856.29 4703.21 6859.62C4706.09 6862.9 4709.37 6865.01 4713.03 6865.96C4717.75 6867.07 4722.22 6867.15 4726.47 6866.21C4730.71 6865.21 4734.53 6863.49 4737.94 6861.04C4741.4 6858.6 4744.3 6855.74 4746.66 6852.46C4749.02 6849.13 4750.67 6845.71 4751.61 6842.21C4752.13 6839.77 4752.37 6838.13 4752.32 6837.29C4752.32 6836.4 4752.16 6835.43 4751.85 6834.38C4751.58 6833.27 4751.45 6832.43 4751.45 6831.88C4751.45 6830.38 4752.11 6829.35 4753.42 6828.79C4754.78 6828.18 4755.85 6828.46 4756.64 6829.63C4757.63 6831.07 4757.58 6833.68 4756.48 6837.46C4755.96 6840.46 4754.83 6843.57 4753.1 6846.79C4751.37 6850.01 4749.15 6853.13 4746.42 6856.12C4743.7 6859.07 4740.53 6861.6 4736.92 6863.71C4733.36 6865.82 4729.43 6867.26 4725.13 6868.04C4720.89 6868.82 4716.36 6868.6 4711.54 6867.37C4708.82 6866.65 4706.14 6865.23 4703.52 6863.12C4700.91 6861.01 4698.6 6858.18 4696.61 6854.62C4694.62 6851.07 4693.18 6847.13 4692.29 6842.79C4691.45 6838.4 4691.48 6833.32 4692.37 6827.54C4693.31 6821.77 4695.25 6815.91 4698.18 6809.96C4701.27 6803.8 4705.17 6798.24 4709.89 6793.3C4714.6 6788.3 4719.58 6784.3 4724.82 6781.3C4730.11 6778.24 4735.48 6775.94 4740.92 6774.38C4746.37 6772.77 4751.61 6772.02 4756.64 6772.13C4760.25 6772.19 4763.03 6772.3 4764.97 6772.47C4766.9 6772.63 4769.99 6773.1 4774.24 6773.88C4778.53 6774.6 4782.78 6775.97 4786.97 6777.97C4791.21 6779.91 4795.43 6782.47 4799.62 6785.63L4801.5 6787.46C4801.61 6787.46 4802.6 6786.8 4804.49 6785.46C4806.43 6784.08 4808.73 6782.55 4811.4 6780.88C4814.07 6779.22 4816.25 6778.1 4817.92 6777.55C4822.22 6776.38 4824.42 6776.38 4824.52 6777.55C4824.52 6777.88 4824.34 6778.16 4823.97 6778.38C4823.61 6778.55 4823.03 6778.74 4822.24 6778.97C4821.46 6779.13 4820.83 6779.3 4820.36 6779.47C4818.47 6780.13 4815.93 6781.77 4812.74 6784.38C4809.54 6786.94 4807.16 6789.1 4805.59 6790.88C4810.04 6796.44 4813.58 6801.52 4816.19 6806.13C4818.87 6810.68 4820.91 6815.52 4822.32 6820.63C4823.74 6825.74 4824.39 6831.04 4824.29 6836.54C4824.18 6842.04 4823.4 6848.26 4821.93 6855.21C4820.83 6860.32 4818.84 6865.85 4815.96 6871.79C4813.13 6877.68 4809.31 6883.48 4804.49 6889.2C4799.72 6894.87 4794.72 6899.01 4789.48 6901.62C4789.27 6901.73 4788.09 6902.34 4785.94 6903.45C4783.85 6904.51 4782.59 6905.12 4782.17 6905.29C4781.75 6905.45 4780.52 6906.01 4778.48 6906.95C4776.44 6907.84 4775.02 6908.37 4774.24 6908.54C4773.45 6908.7 4772.01 6909.09 4769.92 6909.7C4767.82 6910.31 4766.09 6910.65 4764.73 6910.7C4763.37 6910.76 4761.54 6910.87 4759.23 6911.04C4756.93 6911.26 4754.75 6911.26 4752.71 6911.04C4750.67 6910.81 4748.31 6910.54 4745.64 6910.2C4743.02 6909.87 4740.3 6909.4 4737.47 6908.79C4737.15 6908.73 4736.6 6908.56 4735.82 6908.29C4735.03 6908.06 4734.46 6907.93 4734.09 6907.87C4733.77 6907.81 4733.25 6907.84 4732.52 6907.95L4732.05 6908.2L4730.79 6908.87C4730.26 6909.2 4729.69 6909.54 4729.06 6909.87C4728.43 6910.2 4727.78 6910.54 4727.1 6910.87C4726.41 6911.2 4725.81 6911.51 4725.29 6911.79C4724.76 6912.06 4724.32 6912.31 4723.95 6912.54L4723.32 6912.87ZM4738.8 6907.45C4744.72 6908.29 4749.93 6908.7 4754.44 6908.7C4759 6908.76 4763.16 6908.37 4766.93 6907.54C4770.7 6906.65 4774.05 6905.56 4776.99 6904.29C4779.97 6902.95 4783.33 6901.15 4787.04 6898.87C4791.55 6896.15 4795.66 6892.65 4799.38 6888.37C4803.15 6884.09 4806.14 6879.79 4808.34 6875.46C4810.59 6871.07 4812.34 6867.21 4813.6 6863.87C4814.86 6860.54 4815.72 6857.65 4816.19 6855.21C4819.07 6841.49 4819.57 6829.85 4817.69 6820.29C4815.85 6810.74 4811.22 6801.38 4803.78 6792.21C4802.78 6791.99 4799.96 6795.35 4795.29 6802.3C4790.63 6809.18 4786.81 6815.16 4783.82 6820.21C4781.05 6824.93 4778.38 6829.77 4775.81 6834.71C4773.24 6839.65 4770.05 6845.99 4766.22 6853.71C4762.45 6861.37 4760.02 6866.32 4758.92 6868.54C4756.3 6873.76 4751.74 6881.34 4745.25 6891.29C4738.75 6901.23 4735.14 6905.98 4734.4 6905.54C4735.71 6906.59 4737.18 6907.23 4738.8 6907.45ZM4716.41 6912.54C4716.62 6913.26 4717.88 6913.06 4720.18 6911.95C4722.54 6910.84 4724.66 6909.56 4726.55 6908.12C4727.28 6907.51 4727.04 6907.23 4725.84 6907.29C4723.43 6907.4 4720.99 6907.95 4718.53 6908.95C4718.22 6909.06 4717.98 6909.18 4717.82 6909.29C4717.62 6909.4 4717.27 6909.9 4716.8 6910.79C4716.38 6911.67 4716.25 6912.26 4716.41 6912.54ZM4875.28 6912.7C4875.6 6914.98 4878.71 6915.04 4884.63 6912.87L4885.26 6912.54C4885.63 6912.31 4886.07 6912.06 4886.6 6911.79C4887.12 6911.51 4887.72 6911.2 4888.4 6910.87C4889.09 6910.54 4889.74 6910.2 4890.37 6909.87C4891 6909.54 4891.57 6909.2 4892.1 6908.87L4893.35 6908.2L4893.83 6907.95C4894.56 6907.84 4895.08 6907.81 4895.4 6907.87C4895.76 6907.93 4896.34 6908.06 4897.13 6908.29C4897.91 6908.56 4898.46 6908.73 4898.78 6908.79C4901.6 6909.4 4904.33 6909.87 4906.95 6910.2C4909.62 6910.54 4911.98 6910.81 4914.02 6911.04C4916.06 6911.26 4918.24 6911.26 4920.54 6911.04C4922.84 6910.87 4924.68 6910.76 4926.04 6910.7C4927.4 6910.65 4929.13 6910.31 4931.23 6909.7C4933.32 6909.09 4934.76 6908.7 4935.55 6908.54C4936.33 6908.37 4937.75 6907.84 4939.79 6906.95C4941.83 6906.01 4943.06 6905.45 4943.48 6905.29C4943.9 6905.12 4945.16 6904.51 4947.25 6903.45C4949.4 6902.34 4950.58 6901.73 4950.79 6901.62C4956.03 6899.01 4961.03 6894.87 4965.8 6889.2C4970.62 6883.48 4974.44 6877.68 4977.27 6871.79C4980.15 6865.85 4982.14 6860.32 4983.24 6855.21C4984.71 6848.26 4985.49 6842.04 4985.6 6836.54C4985.7 6831.04 4985.05 6825.74 4983.63 6820.63C4982.22 6815.52 4980.17 6810.68 4977.5 6806.13C4974.88 6801.52 4971.35 6796.44 4966.9 6790.88C4968.47 6789.1 4970.85 6786.94 4974.05 6784.38C4977.24 6781.77 4979.78 6780.13 4981.67 6779.47C4982.14 6779.3 4982.77 6779.13 4983.55 6778.97C4984.34 6778.74 4984.91 6778.55 4985.28 6778.38C4985.65 6778.16 4985.83 6777.88 4985.83 6777.55C4985.73 6776.38 4983.53 6776.38 4979.23 6777.55C4977.56 6778.1 4975.38 6779.22 4972.71 6780.88C4970.04 6782.55 4967.73 6784.08 4965.8 6785.46C4963.91 6786.8 4962.92 6787.46 4962.81 6787.46L4960.92 6785.63C4956.73 6782.47 4952.52 6779.91 4948.28 6777.97C4944.08 6775.97 4939.84 6774.6 4935.55 6773.88C4931.3 6773.1 4928.21 6772.63 4926.28 6772.47C4924.34 6772.3 4921.56 6772.19 4917.95 6772.13C4912.92 6772.02 4907.68 6772.77 4902.23 6774.38C4896.79 6775.94 4891.42 6778.24 4886.13 6781.3C4880.89 6784.3 4875.91 6788.3 4871.2 6793.3C4866.48 6798.24 4862.58 6803.8 4859.49 6809.96C4856.56 6815.91 4854.62 6821.77 4853.68 6827.54C4852.79 6833.32 4852.76 6838.4 4853.6 6842.79C4854.49 6847.13 4855.93 6851.07 4857.92 6854.62C4859.91 6858.18 4862.21 6861.01 4864.83 6863.12C4867.45 6865.23 4870.12 6866.65 4872.85 6867.37C4877.67 6868.6 4882.2 6868.82 4886.44 6868.04C4890.74 6867.26 4894.66 6865.82 4898.23 6863.71C4901.84 6861.6 4905.01 6859.07 4907.73 6856.12C4910.46 6853.13 4912.68 6850.01 4914.41 6846.79C4916.14 6843.57 4917.27 6840.46 4917.79 6837.46C4918.89 6833.68 4918.94 6831.07 4917.95 6829.63C4917.16 6828.46 4916.09 6828.18 4914.73 6828.79C4913.42 6829.35 4912.76 6830.38 4912.76 6831.88C4912.76 6832.43 4912.89 6833.27 4913.15 6834.38C4913.47 6835.43 4913.63 6836.4 4913.63 6837.29C4913.68 6838.13 4913.44 6839.77 4912.92 6842.21C4911.98 6845.71 4910.33 6849.13 4907.97 6852.46C4905.61 6855.74 4902.7 6858.6 4899.25 6861.04C4895.84 6863.49 4892.02 6865.21 4887.78 6866.21C4883.53 6867.15 4879.05 6867.07 4874.34 6865.96C4870.67 6865.01 4867.4 6862.9 4864.52 6859.62C4861.69 6856.29 4859.57 6852.26 4858.16 6847.54C4856.79 6842.76 4856.53 6837.18 4857.37 6830.79C4858.26 6824.41 4860.43 6818.05 4863.89 6811.71C4867.51 6805.1 4871.64 6799.3 4876.31 6794.3C4880.97 6789.3 4885.73 6785.35 4890.6 6782.47C4895.53 6779.58 4900.37 6777.44 4905.14 6776.05C4909.96 6774.66 4914.65 6773.97 4919.2 6773.97C4927.22 6773.97 4934.45 6774.94 4940.89 6776.88C4947.33 6778.83 4953.51 6782.08 4959.43 6786.63L4961.87 6789.21C4961.45 6789.94 4960.37 6791.24 4958.65 6793.13C4951.99 6800.52 4946.13 6808.46 4941.05 6816.96C4936.02 6825.41 4930.62 6835.6 4924.86 6847.54C4923.6 6850.04 4920.44 6856.4 4915.35 6866.62C4908.28 6880.68 4901.47 6891.79 4894.93 6899.95C4894.87 6900.06 4894.56 6900.51 4893.98 6901.29C4893.41 6902.06 4892.99 6902.62 4892.73 6902.95C4892.46 6903.23 4892.1 6903.65 4891.63 6904.2C4891.15 6904.76 4890.74 6905.18 4890.37 6905.45C4890.05 6905.68 4889.74 6905.81 4889.43 6905.87C4885.29 6905.87 4881.88 6906.48 4879.21 6907.7C4876.59 6908.93 4875.28 6910.59 4875.28 6912.7ZM4915.75 6908.7C4911.24 6908.7 4906.03 6908.29 4900.11 6907.45C4898.49 6907.23 4897.02 6906.59 4895.71 6905.54C4896.45 6905.98 4900.06 6901.23 4906.55 6891.29C4913.05 6881.34 4917.61 6873.76 4920.23 6868.54C4921.33 6866.32 4923.76 6861.37 4927.53 6853.71C4931.36 6845.99 4934.55 6839.65 4937.12 6834.71C4939.68 6829.77 4942.36 6824.93 4945.13 6820.21C4948.12 6815.16 4951.94 6809.18 4956.6 6802.3C4961.27 6795.35 4964.09 6791.99 4965.09 6792.21C4972.53 6801.38 4977.16 6810.74 4979 6820.29C4980.88 6829.85 4980.38 6841.49 4977.5 6855.21C4977.03 6857.65 4976.17 6860.54 4974.91 6863.87C4973.65 6867.21 4971.9 6871.07 4969.65 6875.46C4967.45 6879.79 4964.46 6884.09 4960.69 6888.37C4956.97 6892.65 4952.86 6896.15 4948.35 6898.87C4944.63 6901.15 4941.28 6902.95 4938.3 6904.29C4935.36 6905.56 4932.01 6906.65 4928.24 6907.54C4924.47 6908.37 4920.3 6908.76 4915.75 6908.7ZM4881.49 6911.95C4879.19 6913.06 4877.93 6913.26 4877.72 6912.54C4877.56 6912.26 4877.69 6911.67 4878.11 6910.79C4878.58 6909.9 4878.92 6909.4 4879.13 6909.29C4879.29 6909.18 4879.53 6909.06 4879.84 6908.95C4882.3 6907.95 4884.74 6907.4 4887.15 6907.29C4888.35 6907.23 4888.59 6907.51 4887.85 6908.12C4885.97 6909.56 4883.85 6910.84 4881.49 6911.95ZM5193.26 6756.47L5271.15 6388.6C5275.92 6365.58 5279.29 6345.37 5281.25 6328C5283.2 6310.62 5284.07 6297.15 5283.85 6287.59C5283.64 6277.82 5282.12 6268.91 5279.29 6260.87C5276.47 6252.84 5274.08 6247.52 5272.12 6244.91C5270.17 6242.08 5267.02 6238.17 5262.67 6233.18L5264.63 6221.77H5543.58C5565.74 6221.77 5586.16 6224.71 5604.84 6230.57C5623.74 6236.22 5640.04 6244.47 5653.72 6255.34C5667.63 6266.2 5677.4 6280.53 5683.05 6298.34C5688.92 6315.94 5689.57 6335.82 5685.01 6357.97L5593.76 6787.75C5589.2 6809.9 5580.18 6829.78 5566.71 6847.37C5553.46 6865.18 5537.6 6879.52 5519.14 6890.38C5500.89 6901.24 5481.12 6909.5 5459.83 6915.15C5438.54 6921.01 5416.81 6923.94 5394.65 6923.94H5109.19L5111.14 6912.54C5147.2 6896.68 5174.58 6844.66 5193.26 6756.47ZM5466.02 6261.85L5333.39 6883.87H5344.47H5361.09C5364.56 6883.87 5368.91 6883.54 5374.12 6882.89C5379.55 6882.24 5383.25 6881.37 5385.2 6880.28C5387.16 6879.2 5389.76 6877.35 5393.02 6874.74C5396.5 6872.14 5398.89 6869.09 5400.19 6865.62C5401.71 6862.36 5403.56 6857.8 5405.73 6851.93C5408.12 6846.29 5410.08 6840.1 5411.6 6833.36C5413.34 6826.63 5415.29 6818.26 5417.46 6808.27L5517.51 6337.44C5519.24 6328.54 5520.66 6321.04 5521.74 6314.96C5522.83 6308.66 5523.7 6302.8 5524.35 6297.37C5525 6291.72 5525.11 6287.27 5524.68 6284.01C5524.46 6280.75 5523.92 6277.6 5523.05 6274.56C5522.18 6271.52 5520.77 6269.45 5518.81 6268.37C5517.07 6267.07 5514.9 6265.76 5512.29 6264.46C5509.69 6263.16 5506.54 6262.5 5502.84 6262.5C5499.37 6262.5 5495.46 6262.29 5491.11 6261.85C5486.77 6261.42 5481.77 6261.42 5476.12 6261.85H5466.02ZM4415.85 6388.6L4493.74 6756.47C4512.42 6844.66 4539.8 6896.68 4575.86 6912.54L4577.81 6923.94H4292.35C4270.19 6923.94 4248.46 6921.01 4227.17 6915.15C4205.88 6909.5 4186.11 6901.24 4167.86 6890.38C4149.4 6879.52 4133.54 6865.18 4120.29 6847.37C4106.82 6829.78 4097.8 6809.9 4093.24 6787.75L4001.99 6357.97C3997.43 6335.82 3998.08 6315.94 4003.95 6298.34C4009.6 6280.53 4019.37 6266.2 4033.28 6255.34C4046.96 6244.47 4063.26 6236.22 4082.16 6230.57C4100.84 6224.71 4121.26 6221.77 4143.42 6221.77H4422.37L4424.33 6233.18C4419.98 6238.17 4416.83 6242.08 4414.88 6244.91C4412.92 6247.52 4410.53 6252.84 4407.71 6260.87C4404.88 6268.91 4403.36 6277.82 4403.15 6287.59C4402.93 6297.15 4403.8 6310.62 4405.75 6328C4407.71 6345.37 4411.08 6365.58 4415.85 6388.6ZM4353.61 6883.87L4220.98 6261.85H4210.88C4205.23 6261.42 4200.23 6261.42 4195.89 6261.85C4191.54 6262.29 4187.63 6262.5 4184.16 6262.5C4180.46 6262.5 4177.31 6263.16 4174.71 6264.46C4172.1 6265.76 4169.93 6267.07 4168.19 6268.37C4166.23 6269.45 4164.82 6271.52 4163.95 6274.56C4163.08 6277.6 4162.54 6280.75 4162.32 6284.01C4161.89 6287.27 4162 6291.72 4162.65 6297.37C4163.3 6302.8 4164.17 6308.66 4165.26 6314.96C4166.34 6321.04 4167.76 6328.54 4169.49 6337.44L4269.54 6808.27C4271.71 6818.26 4273.66 6826.63 4275.4 6833.36C4276.92 6840.1 4278.88 6846.29 4281.27 6851.93C4283.44 6857.8 4285.29 6862.36 4286.81 6865.62C4288.11 6869.09 4290.5 6872.14 4293.98 6874.74C4297.24 6877.35 4299.84 6879.2 4301.8 6880.28C4303.75 6881.37 4307.45 6882.24 4312.88 6882.89C4318.09 6883.54 4322.44 6883.87 4325.91 6883.87H4342.53H4353.61Z" fill="white"/>
</svg>
